<svg width="42" height="42" viewBox="0 0 42 42" fill="none" xmlns="http://www.w3.org/2000/svg">
<path d="M36.2425 33.7575L30.2925 27.825C32.2122 25.3793 33.2539 22.3592 33.25 19.25C33.25 16.4811 32.4289 13.7743 30.8906 11.472C29.3522 9.16973 27.1657 7.37532 24.6076 6.31569C22.0494 5.25607 19.2345 4.97882 16.5187 5.51901C13.803 6.05921 11.3084 7.39258 9.35051 9.35051C7.39258 11.3084 6.05921 13.803 5.51901 16.5187C4.97882 19.2345 5.25607 22.0494 6.31569 24.6076C7.37532 27.1657 9.16973 29.3522 11.472 30.8906C13.7743 32.4289 16.4811 33.25 19.25 33.25C22.3592 33.2539 25.3793 32.2122 27.825 30.2925L33.7575 36.2425C33.9202 36.4065 34.1137 36.5367 34.327 36.6256C34.5403 36.7144 34.769 36.7602 35 36.7602C35.231 36.7602 35.4598 36.7144 35.673 36.6256C35.8863 36.5367 36.0798 36.4065 36.2425 36.2425C36.4065 36.0798 36.5367 35.8863 36.6256 35.673C36.7144 35.4598 36.7602 35.231 36.7602 35C36.7602 34.769 36.7144 34.5403 36.6256 34.327C36.5367 34.1137 36.4065 33.9202 36.2425 33.7575V33.7575ZM8.75001 19.25C8.75001 17.1733 9.36582 15.1432 10.5196 13.4165C11.6733 11.6898 13.3132 10.344 15.2318 9.54927C17.1505 8.75455 19.2617 8.54662 21.2985 8.95176C23.3353 9.35691 25.2062 10.3569 26.6746 11.8254C28.1431 13.2938 29.1431 15.1648 29.5483 17.2016C29.9534 19.2384 29.7455 21.3496 28.9507 23.2682C28.156 25.1868 26.8102 26.8267 25.0835 27.9804C23.3568 29.1342 21.3267 29.75 19.25 29.75C16.4652 29.75 13.7945 28.6438 11.8254 26.6746C9.85625 24.7055 8.75001 22.0348 8.75001 19.25Z" fill="#2F1842"/>
</svg>
